<?xml version="1.0" encoding="utf-8"?><svg width="271" height="172" viewBox="0 0 271 172" xmlns="http://www.w3.org/2000/svg" xmlns:xlink="http://www.w3.org/1999/xlink"><svg id="clear-view-escapes" width="142.4" height="59.53" viewBox="0 0 142.4 59.5" xmlns="http://www.w3.org/2000/svg"><style>.ast0{fill:#003f5a}.ast1{fill:#e1efff}</style><path class="ast0" d="M99.7 29.8c0 16.2-13.2 29.4-29.4 29.4S41 46 41 29.8 54.1.4 70.4.4c9.3 0 17.7 4.4 23 11.2-.3.1-.5.3-.7.5l-.2.2h.3c.2 0 .4 0 .6-.1h.4c.9 1.2 1.7 2.4 2.4 3.7 0 0 0 .1.1.1.1.1.1.2.2.3 0 0 0 .1.1.1 2 4 3.1 8.5 3.1 13.4z"/><path class="ast1" d="M86.4 21.8c-.6 0-1.2-.2-1.8-.5-.8-.4-1.5-1-2.3-1.8-2-2-4.2-3.2-6.7-3.6-.6-.1-1.4-.3-2-.8v-.3s.1-.1.2-.1h.2c.7.5 1.6.7 2.3.8 2.1.4 4 1.4 5.9 3.1.7.6 1.3 1.2 1.9 1.6.7.6 1.5.9 2.2.9 1.1 0 2-.6 2.8-1.8.6-1 .9-2.1 1.1-3.2 0-.1.1-.3.1-.4v-.1c0-.2.1-.5.5-.7l.2-.1v.2c-.4 2.2-.7 4.2-2.3 5.8-.7.7-1.5 1-2.3 1z"/><path class="ast1" d="M73.9 14.8c.7.5 1.6.7 2.4.8 2.3.4 4.2 1.6 5.9 3.1.6.6 1.3 1.1 1.9 1.7 1.9 1.5 3.9 1.1 5.2-1 .7-1.1.9-2.4 1.2-3.6.1-.3.1-.5.5-.7-.3 2.2-.7 4.2-2.3 5.7-1.2 1.1-2.6 1.2-4 .4-.9-.5-1.6-1.1-2.3-1.7-1.9-1.9-4.1-3.2-6.8-3.6-.7-.1-1.4-.3-1.9-.8-.1-.2 0-.4.2-.3zM52.1 41.1c0-.2 0-.5-.1-.7 0-.5-.1-1.1-.2-1.6-.2-1.6.1-2.9.9-4.1 2.1-3 3.2-5.9 3.3-9-.2-1 .1-2 .5-2.9.1-.2.1-.3.2-.5.2-.4.4-.9.6-1.2l.3-.6c.1-.2.3-.4.5-.4h.2c.1 0 .2.1.2.2s0 .3-.1.4c-1.1 1.8-1.7 3.9-1.9 6.4-.2 2.4-.9 4.5-2.1 6.1-1.7 2.4-2.3 4.7-1.9 7.2 0 .1 0 .1.1.2s.1.3 0 .4c-.1.1-.2.2-.4.2h-.1v-.1z"/><path class="ast1" d="M58.4 20.6c-1.2 2-1.7 4.2-2 6.5-.2 2.2-.8 4.3-2.1 6.1-1.6 2.2-2.4 4.6-1.9 7.3 0 .3.3.6-.2.7-.1-.8-.1-1.5-.2-2.3-.2-1.5 0-2.8.9-4.1 1.9-2.7 3.2-5.7 3.3-9.1-.3-1.2.3-2.2.7-3.3.2-.7.6-1.3.9-1.9.1-.2.3-.5.6-.3.1 0 .1.2 0 .4z"/><path class="ast0" d="M96.6 16.3s-.1 0 0 0h-.1s0-.1-.1-.1c-.1-.1-.1-.2-.2-.3 0 0 0-.1-.1-.1.2-.1.4-.1.6-.2h.1v.1c.2.4-.1.5-.2.6z"/><path class="ast1" d="M96.5 16.3c-1 .4-1.6 1.1-2 2.5-1.6 5.2-5 8-10 8.1-.7 0-1.4.1-2.1.2-.4 0-.7.1-1.1.1H81l.2-.2c.5-.6 1-.6 1.6-.6H83.1c2.2 0 4.5-.2 6.4-1.4 2.3-1.5 3.8-3.8 4.6-6.8.3-1.2 1-1.9 2.2-2.4 0 0 0 .1.1.1-.1.1 0 .2.1.4-.1 0 0 0 0 0z"/><path class="ast1" d="M96.4 16.2c-1.2.5-1.7 1.3-2.1 2.6-1.4 4.7-4.6 7.9-9.9 8-1.1 0-2.1.2-3.3.3.6-.7 1.2-.6 1.8-.6 2.3 0 4.5-.2 6.5-1.5 2.5-1.6 3.9-4 4.7-6.8.3-1.3 1.1-1.9 2.1-2.3.1.1.2.2.2.3zM63.4 45.6c.5-.9.1-1.2-.4-1.5-.1 0-.1-.1-.1-.1-2.5-1.8-3.7-4.3-3.4-7.5.2-2.7 1-4.7 2.2-6.2.3-.4.6-.9.8-1.4.2-.4.4-.9.7-1.3v-.2l.1.1.1-.1v.2l.1.1-.1.1c0 .9-.5 1.7-.9 2.4-.1.1-.2.3-.3.4-1.7 2.9-3.2 6.3-1.3 10.2.5 1.1 1.3 2 2.5 2.9.5.3.8.7.8 1 0 .3-.2.6-.6 1l-.6.6.4-.7z"/><path class="ast1" d="M63.2 27.6c0 1.1-.6 2-1.2 2.9-1.9 3.2-3.1 6.6-1.3 10.3.6 1.2 1.5 2.2 2.6 2.9 1 .7 1 1.1.2 1.9.6-1.1-.1-1.4-.6-1.8-2.6-1.8-3.6-4.4-3.3-7.4.2-2.1.7-4.4 2.2-6.1.6-.8.8-1.8 1.4-2.7zM75.3 46.8c-2.1-2-2.1-4.6-1.8-6.9v-.1c0-.2 0-.3.1-.5.9-1.2 1.3-2.7 1.7-4 .3-1 .6-2.1 1.1-3v-.1h.2c.1 0 .2 0 .2.1.1.1 0 .2 0 .3v.1c-.5 1.2-.9 2.5-1.2 3.9-.1.3-.2.9-.6 1.4-1.5 1.9-1.2 4.1-.9 6 .1.6.4 1.2 1 1.7l.1.1c.2.2.4.4.4.6 0 .1-.1.3-.2.4h-.1z"/><path class="ast1" d="M76.8 32.6c-.5 1.3-1 2.6-1.2 4-.1.5-.3 1-.5 1.3-1.5 1.9-1.3 4-.9 6.1.1.7.5 1.3 1 1.8.3.3.6.6.2 1-2-1.9-2.1-4.3-1.8-6.8 0-.2 0-.4.1-.5 1.5-2.1 1.7-4.8 2.8-7.1.3-.1.4 0 .3.2zM81.2 43c-.7-1.4-1.3-3.2-1.1-5.2.1-.9.1-1.8 0-2.7v-2.2c.1-1.9.5-3.4 1.1-4.8l.3-.7-.2.7c-.3 1.6-.7 3.2-.8 5v1.3c0 .4.1.8 0 1.2-.2 2.9.1 5.1.7 7.1v.1l-.2.2h.2z"/><path class="ast1" d="M81.3 43c-.7-1.6-1.3-3.3-1.1-5.2.1-1.6 0-3.2.1-4.9.1-1.6.3-3.2 1.1-4.7-.3 1.7-.7 3.3-.8 5-.1.9.1 1.7.1 2.5-.2 2.5 0 4.8.6 7.3zM93.8 12.1h-.4c-.2 0-.4.1-.6.1h-.3l.2-.2c.2-.2.4-.3.7-.5 0 0 0 .1.1.1l.3.3v.2z"/><path class="ast0" d="M101.2 14.3l-.3-.1c-.2-.1-.4-.1-.6-.2-.3-.1-.5-.2-.8-.2h-.2-.1c-.2 0-.4-.1-.5-.2-.1-.1-.1-.1-.1-.2 0-.3 0-.5-.1-.6-.1-.1-.2-.1-.5-.1h-.6c-1.1 0-2-.1-2.8-.5-.2-.1-.4-.1-.6-.1h-.2l-.1-.1-.3-.3s0-.1-.1-.1c.1-.1.3-.1.4-.1.1 0 .3 0 .4.1.9.4 1.9.5 2.8.6.5.1 1.1.1 1.6.2 1 .2 1.8.8 2.4 1.8l.3.1z"/><path class="ast0" d="M100.9 14.2c-.7-.2-1.1-.5-1.6-.4-.2.1-.5-.1-.5-.3.1-1.1-.8-.8-1.3-.8-1 0-1.9-.1-2.8-.5-.3-.2-.6-.2-.9-.1l-.3-.3c.2-.1.5-.1.7 0 1.4.6 2.9.5 4.4.8.9 0 1.7.5 2.3 1.6z"/><path class="ast1" d="M63.7 14.5c-.1 0-.2 0-.2-.1-.1-.1 0-.2 0-.3.7-1 1.7-2.1 3.1-2.7.7-.3 1.3-.4 1.9-.4 1.2 0 2.2.5 3.2 1.5.3.3.6.6.9 1l.4.4v.3c0 .1-.1.1-.2.1h-.1c-.1-.1-.2-.2-.3-.4-.2-.3-.5-.5-.7-.8-.9-1-2-1.5-3.2-1.5-1 0-2.1.4-3 1.3-.4.3-.7.7-1.1 1.1l-.5.5h-.2z"/><path class="ast1" d="M72.8 14.2c-.3-.4-.7-.8-1-1.1-1.9-1.9-4.3-2-6.3-.2-.5.5-1 1-1.5 1.6-.2 0-.3 0-.2-.2.8-1.1 1.7-2.1 3-2.6 1.8-.8 3.6-.5 5 1 .4.4.8.9 1.2 1.4.1.1-.1.1-.2.1zM63.4 17.2s-.1 0-.1-.1v-.2c.6-1.2 1.5-2.4 2-2.4.1 0 .2 0 .3.2.3.5 1.5.9 3 .9 1.2 0 2.2-.2 2.8-.6h.1c.4 0 1.2.9 1.2 1.5V16.8h-.1c-.1 0-.1-.1-.1-.1s0-.1-.1-.1c-.2-.5-.5-.7-.9-.8-.2.5-1.6.7-2.8.7-1.4 0-3.3-.3-3.7-1.1-.1-.1-.1-.2-.2-.2s-.4.4-.5.8c-.2.4-.4.8-.7 1h-.1c.1.1 0 .2-.1.2z"/><path class="ast1" d="M72.7 16.5c-.2-.5-.5-.8-1.1-.9 0 1-5.6 1.1-6.4-.3-.5-.9-.9 1.2-1.5 1.6-.1.1-.3.2-.2 0 .7-1.4 1.8-2.8 2.1-2.1.5 1.1 4.4 1.3 6 .3.2-.2 1.1.8 1.1 1.4.1.3.2.1 0 0zM53.8 42.1c-.1-2.9 1.1-5.6 2.2-8.1.1-.2.2-.4.3-.7v-.1h.1c.2 0 .2.2.3.2v.1c-.2.6-.5 1.2-.7 1.8-.6 1.5-1.2 3.1-1.5 4.7v.3c-.1.6-.2 1.2-.4 1.7l-.2.5-.1-.4z"/><path class="ast1" d="M56.5 33.6c-.8 2.2-1.8 4.2-2.2 6.5-.1.7-.2 1.3-.4 2-.1-3.2 1.2-5.9 2.4-8.7.2 0 .2.1.2.2zM69.8 29.9c-2.4 0-4.6-.7-6.5-2l-.1-.1h-.1l.1-.1c.1-.2.3-.3.4-.3.2 0 .3.1.5.2 2 1.5 4.4 1.7 6.6 1.8h.2c.4 0 .9 0 1.3.1l.4.1-.4.1c-.9.1-1.7.2-2.4.2z"/><path class="ast1" d="M63.3 27.7c.2-.4.5-.2.7 0 2 1.5 4.3 1.7 6.7 1.8.5 0 1 0 1.4.1-3.2.5-6.2 0-8.8-1.9-.1-.1 0 0 0 0zM59.3 41c-1.6-1.9-2.4-3.7-1.6-5.9.1-.4.2-.9.3-1.3.1-.4.2-.9.3-1.3l.2-.6v.6c0 .9-.1 2-.4 3.2-.4 1.4-.1 2.6.9 4l.1.1c.3.3.5.7.4 1.2l-.1.2-.1-.2z"/><path class="ast1" d="M59.4 40.9c-1.4-1.7-2.5-3.5-1.6-5.8.3-.8.4-1.7.7-2.6 0 1.1-.1 2.1-.4 3.1-.5 1.5 0 2.9 1 4.1.1.3.4.6.3 1.2zM59.2 31.1c-.1-.1-.2-.3 0-.5.8-1.3 1.3-2.9 1.7-4.3.3-.9.5-1.9.9-2.8l.2.1c-.1.6-.3 1.1-.4 1.7-.4 2-.8 4.1-2.2 5.9h-.2v-.1z"/><path class="ast1" d="M59.2 30.6c1.4-2.2 1.7-4.8 2.6-7.2-.6 2.6-.8 5.3-2.6 7.5v-.3zM78.7 39.5c-1-1.9-.8-3.8-.6-5.7.1-.8.2-1.6.2-2.4h.2c.1 1 .1 2 .1 3 0 1.5 0 3 .5 4.5.1.1.2.3.1.5-.1 0-.3.1-.5.1z"/><path class="ast1" d="M78.7 39.4c-1.3-2.6-.4-5.3-.4-8 .3 2.5-.3 5.1.6 7.5.2.3.3.5-.2.5zM74 32.4c-.1 0-.2 0-.3-.1-.1-.1 0-.2 0-.3.5-1.1.5-2.2.5-3.3 0-.8 0-1.7.2-2.5V26c0-.2.1-.4.2-.6l.2-.3v.3c-.1.7 0 1.4 0 2.1.1 1.6.1 3.2-.7 4.7v.1H74v.1z"/><path class="ast1" d="M73.8 32c.9-1.9.2-3.9.7-5.9.1-.2.1-.5.2-.7-.2 2.3.5 4.6-.7 6.8-.2.1-.3 0-.2-.2zM53.9 30c-.2-.8.2-1.3.5-1.7.1-.2.3-.3.3-.5.4-.7.5-1.5.6-2.2.1-.5.2-1.1.3-1.6.1-.2.1-.5.2-.7v-.1h.2c.3 0 .4.3.4.4v.3c-.1.5-.1 1.1-.3 1.6-.1 1.5-.9 2.8-1.8 4.2l-.3.6-.1-.3z"/><path class="ast1" d="M56 25.7c-.1 1.6-1 2.9-1.9 4.3-.2-1.1.6-1.5.9-2.1.3-.7.5-1.4.6-2.2.1-.8.3-1.5.5-2.2.2 0 .3.1.4.3-.2.6-.3 1.3-.5 1.9zM76.4 32.4c.8-1.8 1.8-3.6 3.8-4.5l.1.2c-1.5 1.1-2.4 2.7-3.3 4.3l-.2.4-.4-.4z"/><path class="ast1" d="M76.8 32.6c-.1-.1-.1-.2-.2-.2.8-1.8 1.8-3.5 3.7-4.4-1.7 1.1-2.6 2.9-3.5 4.6zM55.9 23.5c.6-2 1.6-3.5 2.9-4.6h.2c.2.1.2.2.2.3 0 .1 0 .1.1.2v.1c-.3.5-.5.8-.7 1.2l-.1.1-.1-.2v-.1-.1l-.1.1-.1.1c-.6.9-1 1.7-1.3 2.5v.2c0 .2-.1.5-.5.5h-.1l-.4-.3z"/><path class="ast1" d="M56.2 23.7c-.1-.1-.1-.2-.2-.2.5-1.7 1.4-3.3 2.8-4.5.2.1.1.3.2.5-.1.4-.4.8-.7 1.1 0-.1 0-.3-.2-.3-.1 0-.2.2-.3.3-.5.8-1 1.6-1.3 2.5.1.2.1.6-.3.6zM72.5 39c-.5-.2-.5-.6-.4-.9 0-.1.1-.2 0-.3-.1-.4-.1-.9.1-1.4.2-1.4.8-2.8 1.4-4 .1-.1.1-.3.2-.5l.1-.2.3.5v.1c-.8 2-1.7 4.2-1.5 6.6v.2l-.2-.1z"/><path class="ast1" d="M73.8 32c.1.1.1.2.2.3-.9 2.1-1.7 4.3-1.5 6.6-.7-.2-.2-.7-.3-1.1-.1-.5-.1-.9.1-1.4.2-1.5.9-2.9 1.5-4.4zM55.8 25.8v-.1c0-.3.1-.5.1-.7.1-.4.1-.8.2-1.2.3-1.2.7-2.4 1.7-3.2l.3-.3-.1.3c-.7 1.5-1.4 3.3-1.7 5.1v.1h-.5z"/><path class="ast1" d="M56.3 23.7c.3-1.2.7-2.3 1.7-3.2-.7 1.7-1.4 3.3-1.8 5.1H56c.1-.6.1-1.2.3-1.9zM72.1 42v-1.6c-.1-1.3-.1-2.6.2-3.9l.1-.5.1.5c.1.3.1.7 0 1 0 .5-.1 1 .2 1.4v.5c0 .9.1 1.8-.4 2.7l-.2.4V42z"/><path class="ast1" d="M72.3 36.5c.2.8-.2 1.7.2 2.4 0 1 .1 2.1-.3 3.1 0-1.8-.3-3.7.1-5.5zM78.6 39.3c.2-.1.2-.2.2-.4v-.5l.2.5c.6 1.6.8 2.9.7 4.3l-.1.7-1-4.6z"/><path class="ast1" d="M78.7 39.4c.2-.1.2-.3.2-.5.5 1.4.8 2.8.7 4.2-.2-1.2-.6-2.5-.9-3.7z"/><path class="ast0" d="M99.6 15.8c-.3 0-.5 0-.7-.1-.2 0-.5-.1-.7-.1H97.6l.3-.2c.4-.3.8-.3 1.2-.3h.8c.3 0 .7 0 1-.2l.5-.3-.3.5c-.4.5-.8.7-1.5.7z"/><path class="ast0" d="M101 15.1c-.9 1.1-2 .4-3.1.5 1-.7 2.1.1 3.1-.5z"/><path class="ast1" d="M56.2 33.4c.1-.6.4-1 .9-1.2.8-.4 1.4-.9 2-1.5l.3-.3.1.6c-.4.7-1.1 1.1-1.8 1.5-.5.3-.8.6-1 1.1l-.1.2-.4-.4z"/><path class="ast1" d="M59.2 30.6v.4c-.4.7-1.1 1.1-1.7 1.5-.5.3-.8.6-1 1.1-.1-.1-.1-.2-.2-.2.1-.5.3-.9.8-1.1.8-.4 1.5-1 2.1-1.7zM55.8 47h-.3l-.2-.1.2-.1c.3-.2.4-.4.4-.5 0-.2-.3-.3-.6-.5-.5-.2-1-.6-1-1.6v-.4l.2.3c.4.7.9.9 1.3 1.2.1.1.2.1.2.1.3.2.7.4.6.9-.1.4-.4.7-.8.7z"/><path class="ast1" d="M55.6 46.8c.8-.6.4-.9-.2-1.2-.5-.2-.9-.5-1-1.5.5.8 1.1 1.1 1.6 1.4.3.2.6.4.5.8-.1.3-.3.6-.9.5zM59 19.6c-.2-.1-.3-.3-.3-.4V19c.7-.7 1.6-1.3 2.7-1.6h.1v.1c.1.3-.1.4-.2.5h-.1c-.7.2-1.2.7-1.8 1.2l-.4.4z"/><path class="ast1" d="M59 19.5c-.2-.1-.2-.3-.2-.5.8-.7 1.6-1.3 2.7-1.5.1.3-.1.3-.2.4-1 .3-1.6 1-2.3 1.6zM52.1 41.1c.1-.1.2-.2.2-.4v-.3l.1-.3.1.3c.3.6.2 1.3.2 1.9v1.2c0 .1.1.3 0 .4-.1.1-.2.1-.4.2h-.1l-.1-3z"/><path class="ast1" d="M52.2 41.1c.2-.2.1-.4.2-.7.4.9.2 1.9.2 2.9 0 .2.3.6-.2.7 0-1-.1-1.9-.2-2.9zM92 13.7c-.5-.1-.7-.3-.9-.6-.2-.4-.1-.9.2-1.4l.5-.9-.3 1c-.2.7.1 1.2.6 1.8l.2.2-.3-.1z"/><path class="ast1" d="M91.4 11.6c-.2.7.1 1.3.6 1.9-.9-.2-1.1-.8-.6-1.9zM52.7 46c0-.1-.1-.3-.1-.4-.2-.5-.3-1.1-.2-1.7.1-.1.1-.2.1-.3v-.2l.1-.3.1.3c.3.7.2 1.4.2 2.1 0 .2 0 .4-.1.6v.7l-.1-.8z"/><path class="ast1" d="M52.4 44c.2-.2.1-.4.2-.7.4.9.2 1.8.1 2.7-.1-.7-.4-1.3-.3-2zM62.4 16.6c-.1 0-.2 0-.2-.1l-.1-.1v-.1c.4-.9.8-1.6 1.4-2.2l.1-.1.3.3v.1l-1.3 2c0 .1-.1.2-.2.2z"/><path class="ast1" d="M63.7 14.2l.2.2c-.4.7-.9 1.3-1.3 2-.1.1-.2.1-.3 0 .3-.8.7-1.6 1.4-2.2zM93.3 17.1c-1.1-.4-1-1.1-1-1.6v-1l.2.7c.2.6.3 1.1.9 1.8l.2.3-.3-.2z"/><path class="ast1" d="M93.4 17c-1.3-.4-.9-1.2-.9-1.9.2.6.3 1.1.9 1.9zM61.4 17.4l.9-1.2h.5l-.1.2c-.1.1-.2.3-.2.5-.2.5-.5 1-1.2 1.1H61l.4-.6z"/><path class="ast1" d="M62.3 16.4h.3c-.4.6-.5 1.4-1.4 1.5.1-.1.2-.3.2-.4.3-.4.6-.7.9-1.1zM82.4 44.6c-.8-.3-1-1-1.1-1.6 0-.1 0-.1.1-.2l.1-.1 1.2 2-.3-.1z"/><path class="ast1" d="M81.4 42.9c.3.5.7 1.1 1 1.6-.8-.3-1-.9-1-1.6-.1.1 0 0 0 0zM73.6 15.1c-.4-.2-.7-.5-.9-.9v-.1l.3-.4 1 1-.4.4z"/><path class="ast1" d="M72.8 14.2c.1-.1.1-.2.2-.2l.9.9-.2.2c-.4-.3-.7-.6-.9-.9z"/></svg><svg id="comment" width="64" height="64" viewBox="0 0 64 64" x="206.4" xmlns="http://www.w3.org/2000/svg"><style>.bst0{fill:#003f5a}</style><path class="bst0" d="M.7.1C.4.1 0 .3 0 .7v46.6c0 .4.3.7.7.7H48l16 16V.7c0-.3-.2-.7-.6-.7h-.1L.7.1z"/></svg><svg width="21.23" height="42.01" viewBox="0 0 21.23 42.01" id="facebook" x="184.41" y="64" xmlns="http://www.w3.org/2000/svg"><path fill="#FFF" d="M21.23.31V7H17.4a3.55 3.55 0 0 0-2.85.91 4.26 4.26 0 0 0-.74 2.72v4.77H21l-1 7.47h-6.19V42H6.27V22.85H0v-7.47h6.27V9.85q0-4.69 2.55-7.28A9 9 0 0 1 15.63 0a39.57 39.57 0 0 1 5.6.31z"/></svg><svg id="fire" width="64" height="64" viewBox="0 0 56 64" y="107.53" xmlns="http://www.w3.org/2000/svg"><style>.dst0{fill:#fea02f}</style><path class="dst0" d="M16 0C24 16 0 24 0 40s16 24 16 24C8.2 48.2 32 40 32 24S16 0 16 0zm24 24c8 16-16 24-16 40h24c3.2 0 8-4 8-16 0-16-16-24-16-24z"/></svg><svg id="globe" width="64" height="64" viewBox="0 0 64 64" x="64" y="107.53" xmlns="http://www.w3.org/2000/svg"><style>.est0{fill:#fea02f}</style><path class="est0" d="M32 0C14.3 0 0 14.3 0 32s14.3 32 32 32 32-14.3 32-32S49.7 0 32 0zm0 8c2.6.1 5.1.6 7.5 1.5-1.7 1.6-3.6 3-3.3 4.5s5.5 1 5.5 4c0 2.2-3.4 2.8-1 5.3 2.8 2.8-5.1 7.8-5.3 11.5-.2 6.6 6.7 7.8 12.2 7.8 3.4 0 4.2 1.6 4 3.5-4.6 6.3-11.9 10.1-19.8 10-2.9 0-5.8-.6-8.5-1.8 1.8-3.5-2.2-10.5-6-12.7-1.8-1.8-5.8-1.1-8-2-.8-2.2-1.3-4.4-1.5-6.7.3-.5.8-.7 1.3-.7 1.5 0 3.6 3 4.7 2.7 1.4-.3-6-10.5-2.5-12.5 1.6-1 4.8 3.1 3.8-1.3-1-4.1 2.9-2.2 5.3-3.3 2.1-.9 3.6-3.3 1-4.7-.7-.4-1.2-.9-1.8-1.5C23.4 9.3 27.7 8.1 32 8zm18.5 8.7c1.4 1.8 2.6 3.7 3.5 5.8v.2c-.5.6-1.1 1.2-1.8 1.8-2.2 2.2-2.6-1.7-3.5-2.5-1-1-4.8.2-5.3-1-.5-1.5 4-3.4 7.1-4.3z"/></svg><svg width="42.01" height="42.01" viewBox="0 0 42.01 42.01" id="instagram" x="142.4" y="64" xmlns="http://www.w3.org/2000/svg"><path fill="#FFF" d="M37.25 35.49V17.77h-3.69a11.77 11.77 0 0 1 .57 3.58 12.12 12.12 0 0 1-1.75 6.36 12.76 12.76 0 0 1-4.76 4.59 13.13 13.13 0 0 1-6.56 1.7 12.78 12.78 0 0 1-9.19-3.71 12 12 0 0 1-3.83-9 11.77 11.77 0 0 1 .49-3.56H4.68v17.76a1.63 1.63 0 0 0 1.6 1.67h29.3a1.63 1.63 0 0 0 1.17-.47 1.59 1.59 0 0 0 .5-1.2zm-7.77-14.57A7.75 7.75 0 0 0 27 15.14a8.28 8.28 0 0 0-6-2.4 8.25 8.25 0 0 0-5.91 2.39 7.75 7.75 0 0 0-2.47 5.78 7.75 7.75 0 0 0 2.47 5.79A8.25 8.25 0 0 0 21 29.1a8.28 8.28 0 0 0 6-2.4 7.75 7.75 0 0 0 2.48-5.78zm7.76-9.84V6.56a1.84 1.84 0 0 0-.54-1.31 1.8 1.8 0 0 0-1.31-.56h-4.78a1.8 1.8 0 0 0-1.31.56 1.84 1.84 0 0 0-.54 1.31v4.52A1.87 1.87 0 0 0 30.6 13h4.8a1.87 1.87 0 0 0 1.85-1.89zM42 5.39v31.23A5.41 5.41 0 0 1 36.62 42H5.39a5.19 5.19 0 0 1-3.8-1.59A5.19 5.19 0 0 1 0 36.62V5.39a5.19 5.19 0 0 1 1.59-3.8A5.19 5.19 0 0 1 5.39 0h31.23a5.19 5.19 0 0 1 3.8 1.59A5.19 5.19 0 0 1 42 5.39z"/></svg><svg id="mail" viewBox="0 0 64 48" width="64" height="48" y="59.53" xmlns="http://www.w3.org/2000/svg"><style>.gst0{fill:#003f5a}</style><path class="gst0" d="M0 0v8l32 16L64 8V0H0zm0 16v32h64V16L32 32 0 16z"/></svg><svg id="rain" width="64" height="64" viewBox="0 0 64 64" x="206.4" y="64" xmlns="http://www.w3.org/2000/svg"><style>.hst0{fill:#fea02f}</style><path class="hst0" d="M36 0c-9.6 0-18 6.6-20 16-8.9 0-16 7.2-16 16 0 4 1.5 7.8 4.3 10.7C6.4 40.9 9.1 40 12 40c1.5 0 3.1.3 4.5 1 1.4-5.3 6.1-9 11.5-9 5.4.1 10.1 3.8 11.5 9 1.4-.6 2.9-1 4.5-1 4.9 0 9.2 3 11 7.5 5.2-1.4 8.9-6.1 9-11.5 0-5.2-3.4-10.3-8-12v-4C56 9 47 0 36 0zm-9.3 40c-1.7.6-2.8 2.2-2.7 4v16c0 2.2 1.8 4 4 4s4-1.8 4-4V44c0-2.2-1.7-4-3.9-4.1-.3 0-.5 0-.8.1h-.6zm-16 8c-1.7.6-2.8 2.2-2.7 4v8c0 2.2 1.8 4 4 4s4-1.8 4-4v-8c0-2.2-1.7-4-3.9-4.1-.3 0-.5 0-.8.1h-.6zm32 0c-1.7.6-2.8 2.2-2.7 4v8c0 2.2 1.8 4 4 4s4-1.8 4-4v-8c0-2.2-1.7-4-3.9-4.1-.3 0-.5 0-.8.1h-.6z"/></svg><svg id="star" width="64" height="64" viewBox="0 0 64 64" x="128" y="107.53" xmlns="http://www.w3.org/2000/svg"><style>.ist0{fill:#fea02f}</style><path class="ist0" d="M32 0l-8 24H0l20 16-8 24 20-16 20 16-8-24 20-16H40L32 0z"/></svg><svg width="51.78" height="42.06" viewBox="0 0 51.78 42.06" id="twitter" x="206.4" y="128" xmlns="http://www.w3.org/2000/svg"><path fill="#FFF" d="M51.78 5a22.23 22.23 0 0 1-5.32 5.52v1.38a30.15 30.15 0 0 1-1.25 8.53 30.81 30.81 0 0 1-3.76 8.13 32.1 32.1 0 0 1-6.06 6.92 27 27 0 0 1-8.48 4.8 31 31 0 0 1-10.62 1.8A29.47 29.47 0 0 1 0 37.29a22.71 22.71 0 0 0 2.56.13 20.78 20.78 0 0 0 13.17-4.53 10.63 10.63 0 0 1-9.92-7.36 13.45 13.45 0 0 0 2 .16 11 11 0 0 0 2.79-.36 10.44 10.44 0 0 1-6.09-3.67 10.25 10.25 0 0 1-2.41-6.75v-.13a10.52 10.52 0 0 0 4.8 1.34 10.6 10.6 0 0 1-3.45-3.78 10.34 10.34 0 0 1-1.28-5.07 10.4 10.4 0 0 1 1.45-5.33 30.08 30.08 0 0 0 9.71 7.83A29.57 29.57 0 0 0 25.53 13a11.79 11.79 0 0 1-.26-2.43 10.23 10.23 0 0 1 3-7.48 10.64 10.64 0 0 1 15 0l.21.22A20.81 20.81 0 0 0 50.33.8a10.3 10.3 0 0 1-4.67 5.85A21.14 21.14 0 0 0 51.78 5z"/></svg><svg id="wifi" width="64" height="64" viewBox="0 0 60 64" x="142.4" xmlns="http://www.w3.org/2000/svg"><style>.kst0{fill:#fea02f}</style><path class="kst0" d="M29.9 0C19.3 0 8.9 3 0 8.7l4.2 6.5c7.7-4.8 16.6-7.4 25.7-7.3 9.1-.1 18.1 2.4 25.9 7.3L60 8.7C51 3 40.5 0 29.9 0zm0 24c-6 0-11.9 1.7-17 5l4.2 6.7c3.8-2.5 8.2-3.7 12.7-3.7 4.6 0 9.1 1.3 13 3.8L47 29c-5.1-3.3-11.1-5-17.1-5zm0 24c-4.4 0-8 3.6-8 8s3.6 8 8 8 8-3.6 8-8-3.6-8-8-8z"/></svg><svg width="34.75" height="42" viewBox="0 0 34.75 42" id="youtube" x="64" y="59.53" xmlns="http://www.w3.org/2000/svg"><path fill="#FFF" d="M22.13 29.15v5q0 1.57-.91 1.57a1.5 1.5 0 0 1-1.06-.52v-7.11a1.5 1.5 0 0 1 1.06-.54q.91 0 .91 1.6zm7.92 0v1.08h-2.1v-1.06q0-1.59 1.06-1.59t1 1.59zM7.42 24h2.5v-2.14h-7.3v2.2h2.46V37.4h2.34V24zm6.75 13.4h2.09V25.82h-2.09v8.86a1.86 1.86 0 0 1-1.31 1 .48.48 0 0 1-.49-.47 6.52 6.52 0 0 1 0-.82v-8.57h-2.14V35a5.79 5.79 0 0 0 .19 1.71 1.26 1.26 0 0 0 1.36.87 3.43 3.43 0 0 0 2.39-1.43v1.25zm10.05-3.47v-4.6A8.33 8.33 0 0 0 24 27a1.63 1.63 0 0 0-1.67-1.31A2.82 2.82 0 0 0 20.16 27v-5.1h-2.08v15.5h2.09v-1.13a2.91 2.91 0 0 0 2.18 1.31A1.62 1.62 0 0 0 24 36.27a8.61 8.61 0 0 0 .22-2.35zm7.92-.24v-.3H30a11.6 11.6 0 0 1 0 1.43.9.9 0 0 1-.94.85q-1.08 0-1.08-1.61V32h4.19v-2.41a4.65 4.65 0 0 0-.66-2.72 3.2 3.2 0 0 0-5 0 4.52 4.52 0 0 0-.66 2.72v4.05a4.4 4.4 0 0 0 .66 2.72 3 3 0 0 0 2.49 1.2 2.9 2.9 0 0 0 3-2.51 10.31 10.31 0 0 0 .09-1.36zM17.89 12.3V7.38q0-1.61-1-1.61t-1 1.61v4.92q0 1.64 1 1.64t1-1.64zm16.85 17.6a40.6 40.6 0 0 1-.61 8.2 4.45 4.45 0 0 1-1.36 2.32 4.1 4.1 0 0 1-2.39 1.08 125.31 125.31 0 0 1-13 .49 125.31 125.31 0 0 1-13-.49A4.15 4.15 0 0 1 2 40.42 4.28 4.28 0 0 1 .63 38.1 39.76 39.76 0 0 1 0 29.9a40.6 40.6 0 0 1 .61-8.2A4.45 4.45 0 0 1 2 19.37a4.25 4.25 0 0 1 2.41-1.1q4.29-.47 13-.47t13 .47a4.4 4.4 0 0 1 3.75 3.42 39.76 39.76 0 0 1 .58 8.21zM11.35 0h2.39l-2.83 9.35v6.35H8.57V9.35a39.68 39.68 0 0 0-1.43-5Q6.27 2 5.61 0H8.1l1.67 6.16zM20 7.8v4.1a4.59 4.59 0 0 1-.66 2.76 2.88 2.88 0 0 1-2.49 1.19 2.9 2.9 0 0 1-2.46-1.19 4.68 4.68 0 0 1-.66-2.76V7.8a4.59 4.59 0 0 1 .66-2.74 2.9 2.9 0 0 1 2.46-1.19 2.88 2.88 0 0 1 2.49 1.19A4.59 4.59 0 0 1 20 7.8zM27.87 4v11.7h-2.13v-1.27a3.37 3.37 0 0 1-2.41 1.45A1.31 1.31 0 0 1 22 15a6 6 0 0 1-.19-1.76V4h2.13v8.6a6.14 6.14 0 0 0 0 .82.49.49 0 0 0 .47.52 1.87 1.87 0 0 0 1.31-1V4h2.16z"/></svg></svg>