<?xml version="1.0" encoding="utf-8"?>
<!-- Generator: Adobe Illustrator 24.3.0, SVG Export Plug-In . SVG Version: 6.00 Build 0)  -->
<svg version="1.1" id="Layer_1" xmlns="http://www.w3.org/2000/svg" xmlns:xlink="http://www.w3.org/1999/xlink" x="0px" y="0px"
	 width="142.4" height="59.53" viewBox="0 0 142.4 59.5" style="enable-background:new 0 0 142.4 59.5;" xml:space="preserve">
<style type="text/css">
	.st0{fill:#003F5A;}
	.st1{fill:#E1EFFF;}
</style>
<g>
	<path class="st0" d="M99.7,29.8c0,16.2-13.2,29.4-29.4,29.4S41,46,41,29.8S54.1,0.4,70.4,0.4c9.3,0,17.7,4.4,23,11.2
		c-0.3,0.1-0.5,0.3-0.7,0.5l-0.2,0.2h0.3c0.2,0,0.4,0,0.6-0.1c0.1,0,0.2,0,0.4,0c0.9,1.2,1.7,2.4,2.4,3.7c0,0,0,0.1,0.1,0.1
		c0.1,0.1,0.1,0.2,0.2,0.3c0,0,0,0.1,0.1,0.1C98.6,20.4,99.7,24.9,99.7,29.8z"/>
</g>
<g>
	<path class="st1" d="M86.4,21.8c-0.6,0-1.2-0.2-1.8-0.5c-0.8-0.4-1.5-1-2.3-1.8c-2-2-4.2-3.2-6.7-3.6c-0.6-0.1-1.4-0.3-2-0.8l0,0
		l0,0c0-0.1,0-0.2,0-0.3c0,0,0.1-0.1,0.2-0.1c0,0,0.1,0,0.2,0h0l0,0c0.7,0.5,1.6,0.7,2.3,0.8c2.1,0.4,4,1.4,5.9,3.1
		c0.7,0.6,1.3,1.2,1.9,1.6c0.7,0.6,1.5,0.9,2.2,0.9c1.1,0,2-0.6,2.8-1.8c0.6-1,0.9-2.1,1.1-3.2c0-0.1,0.1-0.3,0.1-0.4
		c0,0,0-0.1,0-0.1c0-0.2,0.1-0.5,0.5-0.7l0.2-0.1l0,0.2c-0.4,2.2-0.7,4.2-2.3,5.8C88,21.5,87.2,21.8,86.4,21.8z"/>
	<path class="st1" d="M73.9,14.8c0.7,0.5,1.6,0.7,2.4,0.8c2.3,0.4,4.2,1.6,5.9,3.1c0.6,0.6,1.3,1.1,1.9,1.7c1.9,1.5,3.9,1.1,5.2-1
		c0.7-1.1,0.9-2.4,1.2-3.6c0.1-0.3,0.1-0.5,0.5-0.7c-0.3,2.2-0.7,4.2-2.3,5.7c-1.2,1.1-2.6,1.2-4,0.4c-0.9-0.5-1.6-1.1-2.3-1.7
		c-1.9-1.9-4.1-3.2-6.8-3.6c-0.7-0.1-1.4-0.3-1.9-0.8C73.6,14.9,73.7,14.7,73.9,14.8z"/>
	<path class="st1" d="M52.1,41.1c0-0.2,0-0.5-0.1-0.7c0-0.5-0.1-1.1-0.2-1.6c-0.2-1.6,0.1-2.9,0.9-4.1c2.1-3,3.2-5.9,3.3-9
		c-0.2-1,0.1-2,0.5-2.9c0.1-0.2,0.1-0.3,0.2-0.5c0.2-0.4,0.4-0.9,0.6-1.2c0.1-0.2,0.2-0.4,0.3-0.6v0l0,0c0.1-0.2,0.3-0.4,0.5-0.4
		c0.1,0,0.1,0,0.2,0c0.1,0,0.2,0.1,0.2,0.2c0,0.1,0,0.3-0.1,0.4c-1.1,1.8-1.7,3.9-1.9,6.4c-0.2,2.4-0.9,4.5-2.1,6.1
		c-1.7,2.4-2.3,4.7-1.9,7.2c0,0.1,0,0.1,0.1,0.2c0.1,0.1,0.1,0.3,0,0.4c-0.1,0.1-0.2,0.2-0.4,0.2l-0.1,0L52.1,41.1z"/>
	<path class="st1" d="M58.4,20.6c-1.2,2-1.7,4.2-2,6.5c-0.2,2.2-0.8,4.3-2.1,6.1c-1.6,2.2-2.4,4.6-1.9,7.3c0,0.3,0.3,0.6-0.2,0.7
		c-0.1-0.8-0.1-1.5-0.2-2.3c-0.2-1.5,0-2.8,0.9-4.1c1.9-2.7,3.2-5.7,3.3-9.1c-0.3-1.2,0.3-2.2,0.7-3.3c0.2-0.7,0.6-1.3,0.9-1.9
		c0.1-0.2,0.3-0.5,0.6-0.3C58.5,20.2,58.5,20.4,58.4,20.6z"/>
	<path class="st0" d="M96.6,16.3C96.6,16.3,96.5,16.3,96.6,16.3c-0.1,0-0.1,0-0.1,0c0,0,0-0.1-0.1-0.1c-0.1-0.1-0.1-0.2-0.2-0.3
		c0,0,0-0.1-0.1-0.1c0.2-0.1,0.4-0.1,0.6-0.2l0.1,0l0,0.1C97,16.1,96.7,16.2,96.6,16.3z"/>
	<path class="st1" d="M96.5,16.3c-1,0.4-1.6,1.1-2,2.5c-1.6,5.2-5,8-10,8.1c-0.7,0-1.4,0.1-2.1,0.2c-0.4,0-0.7,0.1-1.1,0.1l-0.3,0
		l0.2-0.2c0.5-0.6,1-0.6,1.6-0.6h0.2c0,0,0.1,0,0.1,0c2.2,0,4.5-0.2,6.4-1.4c2.3-1.5,3.8-3.8,4.6-6.8c0.3-1.2,1-1.9,2.2-2.4
		c0,0,0,0.1,0.1,0.1C96.3,16,96.4,16.1,96.5,16.3C96.4,16.3,96.5,16.3,96.5,16.3z"/>
	<path class="st1" d="M96.4,16.2c-1.2,0.5-1.7,1.3-2.1,2.6c-1.4,4.7-4.6,7.9-9.9,8c-1.1,0-2.1,0.2-3.3,0.3c0.6-0.7,1.2-0.6,1.8-0.6
		c2.3,0,4.5-0.2,6.5-1.5c2.5-1.6,3.9-4,4.7-6.8c0.3-1.3,1.1-1.9,2.1-2.3C96.3,16,96.4,16.1,96.4,16.2z"/>
	<path class="st1" d="M63.4,45.6c0.5-0.9,0.1-1.2-0.4-1.5c-0.1,0-0.1-0.1-0.1-0.1c-2.5-1.8-3.7-4.3-3.4-7.5c0.2-2.7,1-4.7,2.2-6.2
		c0.3-0.4,0.6-0.9,0.8-1.4c0.2-0.4,0.4-0.9,0.7-1.3v-0.2l0.1,0.1l0.1-0.1v0.2l0.1,0.1l-0.1,0.1c0,0.9-0.5,1.7-0.9,2.4
		c-0.1,0.1-0.2,0.3-0.3,0.4c-1.7,2.9-3.2,6.3-1.3,10.2c0.5,1.1,1.3,2,2.5,2.9c0.5,0.3,0.8,0.7,0.8,1c0,0.3-0.2,0.6-0.6,1L63,46.3
		L63.4,45.6z"/>
	<path class="st1" d="M63.2,27.6c0,1.1-0.6,2-1.2,2.9c-1.9,3.2-3.1,6.6-1.3,10.3c0.6,1.2,1.5,2.2,2.6,2.9c1,0.7,1,1.1,0.2,1.9
		c0.6-1.1-0.1-1.4-0.6-1.8c-2.6-1.8-3.6-4.4-3.3-7.4c0.2-2.1,0.7-4.4,2.2-6.1C62.4,29.5,62.6,28.5,63.2,27.6L63.2,27.6z"/>
	<path class="st1" d="M75.3,46.8c-2.1-2-2.1-4.6-1.8-6.9c0,0,0-0.1,0-0.1c0-0.2,0-0.3,0.1-0.5c0.9-1.2,1.3-2.7,1.7-4
		c0.3-1,0.6-2.1,1.1-3l0-0.1l0.1,0c0,0,0.1,0,0.1,0c0.1,0,0.2,0,0.2,0.1c0.1,0.1,0,0.2,0,0.3l0,0.1c-0.5,1.2-0.9,2.5-1.2,3.9
		c-0.1,0.3-0.2,0.9-0.6,1.4c-1.5,1.9-1.2,4.1-0.9,6c0.1,0.6,0.4,1.2,1,1.7c0,0,0,0,0.1,0.1c0.2,0.2,0.4,0.4,0.4,0.6
		c0,0.1-0.1,0.3-0.2,0.4L75.3,46.8L75.3,46.8z"/>
	<path class="st1" d="M76.8,32.6c-0.5,1.3-1,2.6-1.2,4c-0.1,0.5-0.3,1-0.5,1.3c-1.5,1.9-1.3,4-0.9,6.1c0.1,0.7,0.5,1.3,1,1.8
		c0.3,0.3,0.6,0.6,0.2,1c-2-1.9-2.1-4.3-1.8-6.8c0-0.2,0-0.4,0.1-0.5c1.5-2.1,1.7-4.8,2.8-7.1C76.8,32.3,76.9,32.4,76.8,32.6z"/>
	<path class="st1" d="M81.2,43c-0.7-1.4-1.3-3.2-1.1-5.2c0.1-0.9,0.1-1.8,0-2.7c0-0.7,0-1.4,0-2.2c0.1-1.9,0.5-3.4,1.1-4.8l0.3-0.7
		l-0.2,0.7c-0.3,1.6-0.7,3.2-0.8,5c0,0.5,0,0.9,0,1.3c0,0.4,0.1,0.8,0,1.2c-0.2,2.9,0.1,5.1,0.7,7.1l0,0.1l-0.2,0.2L81.2,43z"/>
	<path class="st1" d="M81.3,43c-0.7-1.6-1.3-3.3-1.1-5.2c0.1-1.6,0-3.2,0.1-4.9c0.1-1.6,0.3-3.2,1.1-4.7c-0.3,1.7-0.7,3.3-0.8,5
		c-0.1,0.9,0.1,1.7,0.1,2.5C80.5,38.2,80.7,40.5,81.3,43L81.3,43z"/>
	<path class="st1" d="M93.8,12.1c-0.1,0-0.2,0-0.4,0c-0.2,0-0.4,0.1-0.6,0.1h-0.3l0.2-0.2c0.2-0.2,0.4-0.3,0.7-0.5
		c0,0,0,0.1,0.1,0.1c0.1,0.1,0.2,0.2,0.3,0.3C93.8,12,93.8,12,93.8,12.1z"/>
	<path class="st0" d="M101.2,14.3l-0.3-0.1c-0.2-0.1-0.4-0.1-0.6-0.2c-0.3-0.1-0.5-0.2-0.8-0.2c-0.1,0-0.1,0-0.2,0c0,0-0.1,0-0.1,0
		c-0.2,0-0.4-0.1-0.5-0.2c-0.1-0.1-0.1-0.1-0.1-0.2c0-0.3,0-0.5-0.1-0.6c-0.1-0.1-0.2-0.1-0.5-0.1c-0.1,0-0.2,0-0.3,0
		c-0.1,0-0.2,0-0.3,0c0,0,0,0,0,0c-1.1,0-2-0.1-2.8-0.5c-0.2-0.1-0.4-0.1-0.6-0.1c-0.1,0-0.1,0-0.2,0c0,0-0.1-0.1-0.1-0.1
		c-0.1-0.1-0.2-0.2-0.3-0.3c0,0,0-0.1-0.1-0.1c0.1-0.1,0.3-0.1,0.4-0.1c0.1,0,0.3,0,0.4,0.1c0.9,0.4,1.9,0.5,2.8,0.6
		c0.5,0.1,1.1,0.1,1.6,0.2c1,0.2,1.8,0.8,2.4,1.8L101.2,14.3z"/>
	<path class="st0" d="M100.9,14.2c-0.7-0.2-1.1-0.5-1.6-0.4c-0.2,0.1-0.5-0.1-0.5-0.3c0.1-1.1-0.8-0.8-1.3-0.8c-1,0-1.9-0.1-2.8-0.5
		c-0.3-0.2-0.6-0.2-0.9-0.1c-0.1-0.1-0.2-0.2-0.3-0.3c0.2-0.1,0.5-0.1,0.7,0c1.4,0.6,2.9,0.5,4.4,0.8
		C99.5,12.6,100.3,13.1,100.9,14.2z"/>
	<path class="st1" d="M63.7,14.5c-0.1,0-0.2,0-0.2-0.1c-0.1-0.1,0-0.2,0-0.3v0v0c0.7-1,1.7-2.1,3.1-2.7c0.7-0.3,1.3-0.4,1.9-0.4
		c1.2,0,2.2,0.5,3.2,1.5c0.3,0.3,0.6,0.6,0.9,1c0.1,0.1,0.3,0.3,0.4,0.4l0,0l0,0c0,0.1,0,0.2,0,0.3c0,0.1-0.1,0.1-0.2,0.1
		c0,0-0.1,0-0.1,0l0,0l0,0c-0.1-0.1-0.2-0.2-0.3-0.4c-0.2-0.3-0.5-0.5-0.7-0.8c-0.9-1-2-1.5-3.2-1.5c-1,0-2.1,0.4-3,1.3
		c-0.4,0.3-0.7,0.7-1.1,1.1c-0.2,0.2-0.3,0.3-0.5,0.5l0,0l0,0C63.8,14.5,63.8,14.5,63.7,14.5z"/>
	<path class="st1" d="M72.8,14.2c-0.3-0.4-0.7-0.8-1-1.1c-1.9-1.9-4.3-2-6.3-0.2c-0.5,0.5-1,1-1.5,1.6c-0.2,0-0.3,0-0.2-0.2
		c0.8-1.1,1.7-2.1,3-2.6c1.8-0.8,3.6-0.5,5,1c0.4,0.4,0.8,0.9,1.2,1.4C73.1,14.2,72.9,14.2,72.8,14.2z"/>
	<path class="st1" d="M63.4,17.2c0,0-0.1,0-0.1-0.1c0-0.1,0-0.1,0-0.2c0.6-1.2,1.5-2.4,2-2.4c0.1,0,0.2,0,0.3,0.2
		c0.3,0.5,1.5,0.9,3,0.9c1.2,0,2.2-0.2,2.8-0.6c0,0,0.1,0,0.1,0c0.4,0,1.2,0.9,1.2,1.5c0,0.1,0,0.1,0,0.1c0,0,0,0.1,0,0.1l0,0.1
		h-0.1c-0.1,0-0.1-0.1-0.1-0.1c0,0,0-0.1-0.1-0.1l0,0l0,0c-0.2-0.5-0.5-0.7-0.9-0.8c-0.2,0.5-1.6,0.7-2.8,0.7
		c-1.4,0-3.3-0.3-3.7-1.1c-0.1-0.1-0.1-0.2-0.2-0.2c-0.1,0-0.4,0.4-0.5,0.8c-0.2,0.4-0.4,0.8-0.7,1l-0.1,0
		C63.6,17.1,63.5,17.2,63.4,17.2z"/>
	<path class="st1" d="M72.7,16.5c-0.2-0.5-0.5-0.8-1.1-0.9c0,1-5.6,1.1-6.4-0.3c-0.5-0.9-0.9,1.2-1.5,1.6c-0.1,0.1-0.3,0.2-0.2,0
		c0.7-1.4,1.8-2.8,2.1-2.1c0.5,1.1,4.4,1.3,6,0.3C71.8,14.9,72.7,15.9,72.7,16.5C72.8,16.8,72.9,16.6,72.7,16.5z"/>
	<path class="st1" d="M53.8,42.1c-0.1-2.9,1.1-5.6,2.2-8.1c0.1-0.2,0.2-0.4,0.3-0.7l0-0.1h0.1c0.2,0,0.2,0.2,0.3,0.2c0,0,0,0,0,0.1
		l0,0l0,0c-0.2,0.6-0.5,1.2-0.7,1.8c-0.6,1.5-1.2,3.1-1.5,4.7c0,0.1,0,0.2,0,0.3c-0.1,0.6-0.2,1.2-0.4,1.7l-0.2,0.5L53.8,42.1z"/>
	<path class="st1" d="M56.5,33.6c-0.8,2.2-1.8,4.2-2.2,6.5c-0.1,0.7-0.2,1.3-0.4,2c-0.1-3.2,1.2-5.9,2.4-8.7
		C56.5,33.4,56.5,33.5,56.5,33.6z"/>
	<path class="st1" d="M69.8,29.9c-2.4,0-4.6-0.7-6.5-2l0,0l-0.1-0.1l-0.1,0l0.1-0.1c0.1-0.2,0.3-0.3,0.4-0.3c0.2,0,0.3,0.1,0.5,0.2
		c2,1.5,4.4,1.7,6.6,1.8h0.2c0.4,0,0.9,0,1.3,0.1l0.4,0.1l-0.4,0.1C71.3,29.8,70.5,29.9,69.8,29.9z"/>
	<path class="st1" d="M63.3,27.7c0.2-0.4,0.5-0.2,0.7,0c2,1.5,4.3,1.7,6.7,1.8c0.5,0,1,0,1.4,0.1C68.9,30.1,65.9,29.6,63.3,27.7
		C63.2,27.6,63.3,27.7,63.3,27.7z"/>
	<path class="st1" d="M59.3,41c-1.6-1.9-2.4-3.7-1.6-5.9c0.1-0.4,0.2-0.9,0.3-1.3c0.1-0.4,0.2-0.9,0.3-1.3l0.2-0.6l0,0.6
		c0,0.9-0.1,2-0.4,3.2c-0.4,1.4-0.1,2.6,0.9,4c0,0,0.1,0.1,0.1,0.1c0.3,0.3,0.5,0.7,0.4,1.2l-0.1,0.2L59.3,41z"/>
	<path class="st1" d="M59.4,40.9c-1.4-1.7-2.5-3.5-1.6-5.8c0.3-0.8,0.4-1.7,0.7-2.6c0,1.1-0.1,2.1-0.4,3.1c-0.5,1.5,0,2.9,1,4.1
		C59.2,40,59.5,40.3,59.4,40.9z"/>
	<path class="st1" d="M59.2,31.1c-0.1-0.1-0.2-0.3,0-0.5c0.8-1.3,1.3-2.9,1.7-4.3c0.3-0.9,0.5-1.9,0.9-2.8l0.2,0.1
		c-0.1,0.6-0.3,1.1-0.4,1.7c-0.4,2-0.8,4.1-2.2,5.9H59.2L59.2,31.1z"/>
	<path class="st1" d="M59.2,30.6c1.4-2.2,1.7-4.8,2.6-7.2c-0.6,2.6-0.8,5.3-2.6,7.5C59.2,30.9,59.2,30.8,59.2,30.6z"/>
	<path class="st1" d="M78.7,39.5L78.7,39.5c-1-1.9-0.8-3.8-0.6-5.7c0.1-0.8,0.2-1.6,0.2-2.4l0.2,0c0.1,1,0.1,2,0.1,3
		c0,1.5,0,3,0.5,4.5c0.1,0.1,0.2,0.3,0.1,0.5C79.1,39.4,78.9,39.5,78.7,39.5L78.7,39.5z"/>
	<path class="st1" d="M78.7,39.4c-1.3-2.6-0.4-5.3-0.4-8c0.3,2.5-0.3,5.1,0.6,7.5C79.1,39.2,79.2,39.4,78.7,39.4z"/>
	<path class="st1" d="M74,32.4c-0.1,0-0.2,0-0.3-0.1c-0.1-0.1,0-0.2,0-0.3c0.5-1.1,0.5-2.2,0.5-3.3c0-0.8,0-1.7,0.2-2.5
		c0-0.1,0-0.1,0-0.2c0-0.2,0.1-0.4,0.2-0.6l0.2-0.3l0,0.3c-0.1,0.7,0,1.4,0,2.1c0.1,1.6,0.1,3.2-0.7,4.7l0,0.1H74
		C74,32.4,74,32.4,74,32.4z"/>
	<path class="st1" d="M73.8,32c0.9-1.9,0.2-3.9,0.7-5.9c0.1-0.2,0.1-0.5,0.2-0.7c-0.2,2.3,0.5,4.6-0.7,6.8
		C73.8,32.3,73.7,32.2,73.8,32z"/>
	<path class="st1" d="M53.9,30c-0.2-0.8,0.2-1.3,0.5-1.7c0.1-0.2,0.3-0.3,0.3-0.5c0.4-0.7,0.5-1.5,0.6-2.2c0.1-0.5,0.2-1.1,0.3-1.6
		c0.1-0.2,0.1-0.5,0.2-0.7l0-0.1H56c0,0,0,0,0,0c0.3,0,0.4,0.3,0.4,0.4l0,0v0c0,0.1,0,0.2,0,0.3c-0.1,0.5-0.1,1.1-0.3,1.6
		c-0.1,1.5-0.9,2.8-1.8,4.2L54,30.3L53.9,30z"/>
	<path class="st1" d="M56,25.7c-0.1,1.6-1,2.9-1.9,4.3c-0.2-1.1,0.6-1.5,0.9-2.1c0.3-0.7,0.5-1.4,0.6-2.2c0.1-0.8,0.3-1.5,0.5-2.2
		c0.2,0,0.3,0.1,0.4,0.3C56.3,24.4,56.2,25.1,56,25.7z"/>
	<path class="st1" d="M76.4,32.4L76.4,32.4c0.8-1.8,1.8-3.6,3.8-4.5l0.1,0.2c-1.5,1.1-2.4,2.7-3.3,4.3l-0.2,0.4L76.4,32.4z"/>
	<path class="st1" d="M76.8,32.6c-0.1-0.1-0.1-0.2-0.2-0.2c0.8-1.8,1.8-3.5,3.7-4.4C78.6,29.1,77.7,30.9,76.8,32.6z"/>
	<path class="st1" d="M55.9,23.5L55.9,23.5c0.6-2,1.6-3.5,2.9-4.6l0.1,0l0.1,0c0.2,0.1,0.2,0.2,0.2,0.3c0,0.1,0,0.1,0.1,0.2l0,0
		l0,0.1c-0.3,0.5-0.5,0.8-0.7,1.2l-0.1,0.1l-0.1-0.2c0,0,0-0.1,0-0.1c0,0,0-0.1,0-0.1c0,0,0,0,0,0c0,0-0.1,0.1-0.1,0.1
		c0,0-0.1,0.1-0.1,0.1c-0.6,0.9-1,1.7-1.3,2.5c0,0,0,0.1,0,0.2c0,0.2-0.1,0.5-0.5,0.5h-0.1L55.9,23.5z"/>
	<path class="st1" d="M56.2,23.7c-0.1-0.1-0.1-0.2-0.2-0.2c0.5-1.7,1.4-3.3,2.8-4.5c0.2,0.1,0.1,0.3,0.2,0.5
		c-0.1,0.4-0.4,0.8-0.7,1.1c0-0.1,0-0.3-0.2-0.3c-0.1,0-0.2,0.2-0.3,0.3c-0.5,0.8-1,1.6-1.3,2.5C56.6,23.3,56.6,23.7,56.2,23.7z"/>
	<path class="st1" d="M72.5,39c-0.5-0.2-0.5-0.6-0.4-0.9c0-0.1,0.1-0.2,0-0.3c-0.1-0.4-0.1-0.9,0.1-1.4c0.2-1.4,0.8-2.8,1.4-4
		c0.1-0.1,0.1-0.3,0.2-0.5l0.1-0.2l0.3,0.5l0,0.1c-0.8,2-1.7,4.2-1.5,6.6l0,0.2L72.5,39z"/>
	<path class="st1" d="M73.8,32c0.1,0.1,0.1,0.2,0.2,0.3c-0.9,2.1-1.7,4.3-1.5,6.6c-0.7-0.2-0.2-0.7-0.3-1.1
		c-0.1-0.5-0.1-0.9,0.1-1.4C72.5,34.9,73.2,33.5,73.8,32z"/>
	<path class="st1" d="M55.8,25.8l0-0.1c0-0.3,0.1-0.5,0.1-0.7c0.1-0.4,0.1-0.8,0.2-1.2c0.3-1.2,0.7-2.4,1.7-3.2l0.3-0.3L58,20.6
		c-0.7,1.5-1.4,3.3-1.7,5.1l0,0.1h-0.1c-0.1,0-0.1,0-0.2,0L55.8,25.8L55.8,25.8z"/>
	<path class="st1" d="M56.3,23.7c0.3-1.2,0.7-2.3,1.7-3.2c-0.7,1.7-1.4,3.3-1.8,5.1c-0.1,0-0.1,0-0.2,0C56.1,25,56.1,24.4,56.3,23.7
		z"/>
	<path class="st1" d="M72.1,42c0-0.5,0-1.1,0-1.6c-0.1-1.3-0.1-2.6,0.2-3.9l0.1-0.5l0.1,0.5c0.1,0.3,0.1,0.7,0,1
		c0,0.5-0.1,1,0.2,1.4l0,0v0c0,0.1,0,0.3,0,0.5c0,0.9,0.1,1.8-0.4,2.7l-0.2,0.4L72.1,42z"/>
	<path class="st1" d="M72.3,36.5c0.2,0.8-0.2,1.7,0.2,2.4c0,1,0.1,2.1-0.3,3.1C72.2,40.2,71.9,38.3,72.3,36.5z"/>
	<path class="st1" d="M78.6,39.3L78.6,39.3c0.2-0.1,0.2-0.2,0.2-0.4l0-0.5l0.2,0.5c0.6,1.6,0.8,2.9,0.7,4.3l-0.1,0.7L78.6,39.3z"/>
	<path class="st1" d="M78.7,39.4c0.2-0.1,0.2-0.3,0.2-0.5c0.5,1.4,0.8,2.8,0.7,4.2C79.4,41.9,79,40.6,78.7,39.4z"/>
	<path class="st0" d="M99.6,15.8c-0.3,0-0.5,0-0.7-0.1c-0.2,0-0.5-0.1-0.7-0.1c-0.1,0-0.1,0-0.2,0l-0.4,0l0.3-0.2
		c0.4-0.3,0.8-0.3,1.2-0.3c0.1,0,0.3,0,0.4,0c0.1,0,0.3,0,0.4,0c0.3,0,0.7,0,1-0.2l0.5-0.3l-0.3,0.5
		C100.7,15.6,100.3,15.8,99.6,15.8L99.6,15.8z"/>
	<path class="st0" d="M101,15.1c-0.9,1.1-2,0.4-3.1,0.5C98.9,14.9,100,15.7,101,15.1z"/>
	<path class="st1" d="M56.2,33.4L56.2,33.4c0.1-0.6,0.4-1,0.9-1.2c0.8-0.4,1.4-0.9,2-1.5l0.3-0.3l0.1,0.6l0,0
		c-0.4,0.7-1.1,1.1-1.8,1.5c-0.5,0.3-0.8,0.6-1,1.1l-0.1,0.2L56.2,33.4z"/>
	<path class="st1" d="M59.2,30.6c0,0.1,0,0.3,0,0.4c-0.4,0.7-1.1,1.1-1.7,1.5c-0.5,0.3-0.8,0.6-1,1.1c-0.1-0.1-0.1-0.2-0.2-0.2
		c0.1-0.5,0.3-0.9,0.8-1.1C57.9,31.9,58.6,31.3,59.2,30.6z"/>
	<path class="st1" d="M55.8,47c-0.1,0-0.2,0-0.3,0l-0.2-0.1l0.2-0.1c0.3-0.2,0.4-0.4,0.4-0.5c0-0.2-0.3-0.3-0.6-0.5
		c-0.5-0.2-1-0.6-1-1.6l0-0.4l0.2,0.3c0.4,0.7,0.9,0.9,1.3,1.2c0.1,0.1,0.2,0.1,0.2,0.1c0.3,0.2,0.7,0.4,0.6,0.9
		C56.5,46.7,56.2,47,55.8,47z"/>
	<path class="st1" d="M55.6,46.8c0.8-0.6,0.4-0.9-0.2-1.2c-0.5-0.2-0.9-0.5-1-1.5c0.5,0.8,1.1,1.1,1.6,1.4c0.3,0.2,0.6,0.4,0.5,0.8
		C56.4,46.6,56.2,46.9,55.6,46.8z"/>
	<path class="st1" d="M59,19.6c-0.2-0.1-0.3-0.3-0.3-0.4c0,0,0-0.1,0-0.1l0-0.1l0,0c0.7-0.7,1.6-1.3,2.7-1.6l0.1,0l0,0.1
		c0.1,0.3-0.1,0.4-0.2,0.5c0,0,0,0-0.1,0h0h0c-0.7,0.2-1.2,0.7-1.8,1.2C59.3,19.3,59.2,19.4,59,19.6L59,19.6L59,19.6z"/>
	<path class="st1" d="M59,19.5c-0.2-0.1-0.2-0.3-0.2-0.5c0.8-0.7,1.6-1.3,2.7-1.5c0.1,0.3-0.1,0.3-0.2,0.4
		C60.3,18.2,59.7,18.9,59,19.5z"/>
	<path class="st1" d="M52.1,41.1L52.1,41.1c0.1-0.1,0.2-0.2,0.2-0.4c0-0.1,0-0.2,0-0.3l0.1-0.3l0.1,0.3c0.3,0.6,0.2,1.3,0.2,1.9
		c0,0.3,0,0.6,0,1c0,0.1,0,0.1,0,0.2c0,0.1,0.1,0.3,0,0.4c-0.1,0.1-0.2,0.1-0.4,0.2l-0.1,0L52.1,41.1z"/>
	<path class="st1" d="M52.2,41.1c0.2-0.2,0.1-0.4,0.2-0.7c0.4,0.9,0.2,1.9,0.2,2.9c0,0.2,0.3,0.6-0.2,0.7
		C52.4,43,52.3,42.1,52.2,41.1z"/>
	<path class="st1" d="M92,13.7c-0.5-0.1-0.7-0.3-0.9-0.6c-0.2-0.4-0.1-0.9,0.2-1.4l0.5-0.9l-0.3,1c-0.2,0.7,0.1,1.2,0.6,1.8l0.2,0.2
		L92,13.7z"/>
	<path class="st1" d="M91.4,11.6c-0.2,0.7,0.1,1.3,0.6,1.9C91.1,13.3,90.9,12.7,91.4,11.6z"/>
	<path class="st1" d="M52.7,46c0-0.1-0.1-0.3-0.1-0.4c-0.2-0.5-0.3-1.1-0.2-1.7l0,0l0,0c0.1-0.1,0.1-0.2,0.1-0.3c0-0.1,0-0.2,0-0.2
		l0.1-0.3l0.1,0.3c0.3,0.7,0.2,1.4,0.2,2.1c0,0.2,0,0.4-0.1,0.6l0,0.7L52.7,46z"/>
	<path class="st1" d="M52.4,44c0.2-0.2,0.1-0.4,0.2-0.7c0.4,0.9,0.2,1.8,0.1,2.7C52.6,45.3,52.3,44.7,52.4,44z"/>
	<path class="st1" d="M62.4,16.6c-0.1,0-0.2,0-0.2-0.1l-0.1-0.1l0-0.1c0.4-0.9,0.8-1.6,1.4-2.2l0.1-0.1l0.3,0.3l0,0.1l-1.3,2l0,0
		C62.6,16.5,62.5,16.6,62.4,16.6z"/>
	<path class="st1" d="M63.7,14.2c0.1,0.1,0.1,0.1,0.2,0.2c-0.4,0.7-0.9,1.3-1.3,2c-0.1,0.1-0.2,0.1-0.3,0
		C62.6,15.6,63,14.8,63.7,14.2z"/>
	<path class="st1" d="M93.3,17.1c-1.1-0.4-1-1.1-1-1.6c0-0.1,0-0.2,0-0.3l0-0.7l0.2,0.7c0.2,0.6,0.3,1.1,0.9,1.8l0.2,0.3L93.3,17.1z
		"/>
	<path class="st1" d="M93.4,17c-1.3-0.4-0.9-1.2-0.9-1.9C92.7,15.7,92.8,16.2,93.4,17z"/>
	<path class="st1" d="M61.4,17.4l0.9-1.2h0.5l-0.1,0.2c-0.1,0.1-0.2,0.3-0.2,0.5c-0.2,0.5-0.5,1-1.2,1.1L61,18L61.4,17.4z"/>
	<path class="st1" d="M62.3,16.4c0.1,0,0.2,0,0.3,0c-0.4,0.6-0.5,1.4-1.4,1.5c0.1-0.1,0.2-0.3,0.2-0.4C61.7,17.1,62,16.8,62.3,16.4z
		"/>
	<path class="st1" d="M82.4,44.6c-0.8-0.3-1-1-1.1-1.6c0-0.1,0-0.1,0.1-0.2l0.1-0.1l1.2,2L82.4,44.6z"/>
	<path class="st1" d="M81.4,42.9c0.3,0.5,0.7,1.1,1,1.6C81.6,44.2,81.4,43.6,81.4,42.9C81.3,43,81.4,42.9,81.4,42.9z"/>
	<path class="st1" d="M73.6,15.1c-0.4-0.2-0.7-0.5-0.9-0.9l0-0.1l0.3-0.4l1,1L73.6,15.1L73.6,15.1z"/>
	<path class="st1" d="M72.8,14.2c0.1-0.1,0.1-0.2,0.2-0.2c0.3,0.3,0.6,0.6,0.9,0.9c-0.1,0.1-0.1,0.1-0.2,0.2
		C73.3,14.8,73,14.5,72.8,14.2z"/>
</g>
</svg>
