<?xml version="1.0" encoding="utf-8"?>
<!-- Generator: Adobe Illustrator 24.3.0, SVG Export Plug-In . SVG Version: 6.00 Build 0)  -->
<svg version="1.1" id="Layer_1" xmlns="http://www.w3.org/2000/svg" xmlns:xlink="http://www.w3.org/1999/xlink" x="0px" y="0px"
	 viewBox="0 0 200 93.9" style="enable-background:new 0 0 200 93.9;" xml:space="preserve">
<style type="text/css">
	.st0{fill:#003F5A;}
	.st1{fill:#E1EFFF;}
	.st2{opacity:0.3;fill:#E1EFFF;}
</style>
<rect x="30.6" y="0" class="st0" width="138.9" height="93.9"/>
<g id="Layer_2_1_">
	<g id="Layer_1-2">
		<path class="st1" d="M124.3,34.2c-1.1,0-2.1-0.3-3-0.8c-1.4-0.7-2.6-1.7-3.7-2.8c-2.8-3-6.6-5.1-10.7-5.8
			c-1.2-0.1-2.2-0.6-3.1-1.3l0,0v-0.1c0-0.1-0.1-0.4,0.1-0.5s0.1-0.1,0.3-0.1c0.1,0,0.2,0,0.3,0.1l0,0c1.1,0.7,2.4,1.1,3.7,1.4
			c3.6,0.7,6.9,2.5,9.4,5c1.1,1,2.1,1.8,3.1,2.6c1,0.8,2.3,1.3,3.6,1.3c1.7,0,3.2-1,4.4-2.9c0.9-1.6,1.5-3.2,1.8-5
			c0.1-0.2,0.1-0.5,0.2-0.6v-0.2c0.1-0.5,0.4-0.9,0.8-1.1l0.3-0.2l-0.1,0.4c-0.5,3.5-1.1,6.8-3.8,9.2
			C126.8,33.7,125.6,34.2,124.3,34.2z"/>
		<path class="st1" d="M104.2,23c1.2,0.7,2.5,1.1,3.8,1.4c3.5,0.7,6.8,2.5,9.4,4.9c1,0.9,2,1.8,3.1,2.6c3.1,2.3,6.2,1.7,8.3-1.5
			c1-1.8,1.6-3.7,2-5.8c0-0.5,0.3-1,0.8-1.2c-0.5,3.4-1.1,6.8-3.7,9.1c-1.7,1.7-4.4,1.9-6.4,0.6c-1.3-0.7-2.5-1.7-3.6-2.8
			c-2.9-3.1-6.7-5.1-10.9-5.8c-1.1-0.1-2.2-0.5-3.1-1.3C103.9,23.1,104,23,104.2,23z"/>
		<path class="st1" d="M69.5,65.1c0-0.4-0.1-0.8-0.1-1.2c-0.1-0.8-0.2-1.7-0.3-2.5c-0.4-2.3,0.1-4.7,1.5-6.6
			c3.1-4.2,4.9-9.2,5.2-14.4c-0.2-1.6,0.1-3.2,0.8-4.6L77,35c0.3-0.7,0.6-1.3,0.9-2c0.2-0.3,0.3-0.7,0.5-1l0,0l0,0
			c0.2-0.3,0.4-0.6,0.8-0.6c0.1,0,0.2,0,0.3,0.1c0.2,0.1,0.3,0.2,0.4,0.4c0.1,0.2,0,0.5-0.2,0.6c-1.8,3.2-2.8,6.7-3.1,10.3
			c-0.3,3.5-1.4,6.9-3.3,9.8c-2.8,3.8-3.8,7.5-3.1,11.5c0,0.1,0.1,0.2,0.1,0.3c0.1,0.2,0.1,0.5,0,0.7s-0.3,0.3-0.6,0.3h-0.2
			L69.5,65.1L69.5,65.1z"/>
		<path class="st1" d="M79.5,32.3c-1.8,3.2-2.9,6.7-3.1,10.4c-0.3,3.5-1.4,6.8-3.3,9.7c-2.5,3.6-3.9,7.3-3.1,11.7
			c0.1,0.4,0.5,0.9-0.4,1.1c-0.1-1.3-0.2-2.4-0.4-3.7c-0.4-2.3,0.1-4.6,1.4-6.5c3.3-4.2,5.1-9.3,5.3-14.6c-0.5-1.9,0.4-3.6,1.1-5.2
			c0.4-1,0.9-2,1.4-3c0.2-0.4,0.5-0.7,0.9-0.5C79.8,31.7,79.8,32,79.5,32.3z"/>
		<path class="st1" d="M140.7,25.5h-0.2c0-0.1-0.1-0.1-0.1-0.2l-0.3-0.5c0-0.1-0.1-0.1-0.1-0.2c0.3-0.1,0.7-0.2,1-0.4l0.2-0.1v0.2
			C141.4,25.3,141,25.5,140.7,25.5z"/>
		<path class="st1" d="M140.4,25.5c-1.6,0.6-2.6,1.8-3.2,4c-2.5,8.3-8,12.7-16,13c-1.1,0-2.3,0.2-3.4,0.4c-0.5,0.1-1.2,0.1-1.8,0.2
			l-0.4,0.1l0.3-0.4c0.6-0.7,1.6-1.1,2.5-1h0.5c3.5-0.1,7.1-0.3,10.3-2.3c3.7-2.3,6.1-6,7.4-10.8c0.4-1.8,1.8-3.3,3.5-3.9
			c0,0.1,0.1,0.1,0.1,0.2l0.3,0.5C140.3,25.4,140.3,25.4,140.4,25.5z"/>
		<path class="st1" d="M140.3,25.3c-1.9,0.7-2.7,2.2-3.3,4c-2.2,7.6-7.4,12.6-15.8,12.8c-1.7,0.1-3.3,0.4-5.2,0.5
			c0.9-1.1,1.9-0.9,2.9-0.9c3.6-0.1,7.2-0.4,10.3-2.3c3.8-2.6,6.4-6.5,7.5-10.9c0.4-1.8,1.7-3.2,3.4-3.8
			C140.1,24.9,140.2,25.1,140.3,25.3z"/>
		<path class="st1" d="M87.6,72.3c0.9-1.4,0.1-1.9-0.7-2.4c-0.1-0.1-0.2-0.1-0.2-0.2c-3.9-2.6-6-7.2-5.4-11.9
			c0.4-4.2,1.5-7.5,3.5-9.9c0.5-0.7,0.9-1.4,1.3-2.2c0.3-0.7,0.7-1.4,1.2-2.1v-0.4l0.2,0.2l0.2-0.2v0.4l0.1,0.1l-0.1,0.1
			c-0.1,1.4-0.7,2.8-1.5,3.9c-0.2,0.3-0.3,0.5-0.5,0.7c-2.7,4.6-5,10.1-2.1,16.3c0.9,1.9,2.3,3.5,4,4.6c0.6,0.3,1.1,0.9,1.3,1.6
			c-0.1,0.7-0.4,1.2-1,1.6L87,73.4L87.6,72.3z"/>
		<path class="st1" d="M87.3,43.6c0,1.8-1,3.2-1.9,4.6c-3.1,5.1-4.9,10.4-2.2,16.5c0.9,1.9,2.4,3.5,4.1,4.7c1.6,1.2,1.6,1.7,0.3,3.1
			c1-1.7-0.2-2.3-1-2.8c-3.9-2.6-5.9-7.2-5.3-11.8c0.4-3.4,1.2-7,3.4-9.8C85.9,46.5,86.2,44.9,87.3,43.6L87.3,43.6z"/>
		<path class="st1" d="M106.6,74.2c-3.3-3.2-3.3-7.4-2.9-11V63c0-0.3,0.1-0.5,0.2-0.7c1.2-2,2.2-4.2,2.8-6.5
			c0.5-1.7,1.1-3.3,1.8-4.9v-0.1h0.3c0.1,0,0.3,0.1,0.4,0.2c0.1,0.1,0.1,0.3,0,0.5l-0.1,0.2c-0.8,2-1.5,4.1-1.9,6.2
			c-0.1,0.8-0.4,1.5-0.9,2.2c-2.4,3.1-2,6.6-1.3,9.6c0.2,1.1,0.8,2,1.5,2.8l0.1,0.1c0.3,0.3,0.6,0.6,0.6,1c0,0.3-0.1,0.5-0.4,0.7
			l-0.1,0.1L106.6,74.2z"/>
		<path class="st1" d="M108.9,51.4c-0.9,2.1-1.5,4.2-2,6.4c-0.1,0.8-0.4,1.5-0.9,2.1c-2.3,3-2.1,6.3-1.4,9.7
			c0.2,1.1,0.8,2.1,1.6,2.9c0.4,0.4,1,0.9,0.4,1.5c-3.2-3.1-3.3-6.8-2.8-10.8c0-0.3,0-0.6,0.2-0.9c2.4-3.4,2.7-7.7,4.5-11.3
			C108.9,51,109,51.1,108.9,51.4z"/>
		<path class="st1" d="M116,68.1c-1.3-2.6-2-5.5-1.8-8.4c0.1-1.4,0.1-2.9,0.1-4.3c0-1.1-0.1-2.3,0-3.4c0.1-2.6,0.7-5.2,1.8-7.6
			l0.5-1.1l-0.3,1.2c-0.6,2.6-1,5.3-1.3,8c-0.1,0.7,0,1.4,0.1,2.1c0.1,0.6,0.1,1.3,0.1,1.9c-0.4,3.8,0,7.7,1.2,11.3V68l-0.4,0.4
			L116,68.1z"/>
		<path class="st1" d="M116.2,68c-1.3-2.6-1.9-5.4-1.7-8.3c0.3-2.6-0.1-5.2,0.1-7.7c0-2.6,0.6-5.2,1.8-7.6c-0.6,2.6-1,5.3-1.3,8
			c-0.1,1.3,0.2,2.7,0.1,4c-0.3,3.8,0.1,7.7,1.2,11.4L116.2,68z"/>
		<path class="st1" d="M136.1,18.7c-0.2,0-0.4,0.1-0.6,0.1c-0.3,0.1-0.7,0.1-1,0.1H134l0.3-0.3c0.3-0.3,0.7-0.6,1.1-0.7
			c0,0,0,0.1,0.1,0.1c0.2,0.2,0.3,0.4,0.4,0.5C136,18.5,136.1,18.6,136.1,18.7z"/>
		<path class="st1" d="M147.7,22.3l-0.4-0.1c-0.3-0.1-0.6-0.2-0.9-0.4c-0.4-0.2-0.8-0.3-1.3-0.4h-0.5c-0.3,0-0.5-0.1-0.7-0.3
			c-0.1-0.1-0.2-0.2-0.1-0.4c0-0.3,0-0.7-0.2-1c-0.2-0.2-0.4-0.2-0.7-0.2h-1c-1.7-0.1-3.2-0.1-4.5-0.9c-0.3-0.2-0.7-0.2-1-0.2h-0.3
			c0-0.1-0.1-0.1-0.1-0.2c-0.1-0.2-0.3-0.4-0.4-0.5c0,0,0-0.1-0.1-0.1c0.2-0.1,0.4-0.2,0.6-0.2c0.2,0,0.4,0.1,0.6,0.1
			c1.4,0.5,3,0.8,4.5,0.9c0.8,0.1,1.7,0.2,2.5,0.4c1.7,0.3,3.1,1.4,3.8,2.9L147.7,22.3z"/>
		<path class="st1" d="M88,22.6c-0.2,0-0.3-0.1-0.3-0.3c0-0.1,0-0.2,0.1-0.3l0,0c1.2-1.8,2.9-3.3,4.9-4.3c0.9-0.4,2-0.6,3-0.6
			c2,0,3.8,0.9,5.1,2.3c0.4,0.5,0.9,1,1.3,1.5c0.2,0.3,0.4,0.5,0.6,0.7l0,0c0.1,0.1,0.1,0.3,0,0.5c-0.1,0.1-0.2,0.2-0.4,0.2H102
			l-0.5-0.5c-0.4-0.4-0.7-0.8-1.2-1.3c-1.3-1.4-3.1-2.3-5-2.3c-1.8,0-3.5,0.8-4.8,2.1c-0.6,0.5-1.2,1.1-1.7,1.8
			c-0.3,0.2-0.5,0.5-0.7,0.8H88C88.2,22.5,88.1,22.6,88,22.6z"/>
		<path class="st1" d="M102.5,22.1c-0.5-0.6-1.1-1.3-1.6-1.8c-3.1-3.1-6.8-3.2-10.1-0.4c-0.9,0.8-1.7,1.6-2.4,2.5
			c-0.3,0.1-0.5,0.1-0.3-0.4c1.2-1.8,2.9-3.3,4.9-4.2c2.7-1.3,6-0.6,8,1.6c0.7,0.7,1.4,1.5,2,2.3C103,22.1,102.8,22.1,102.5,22.1z"
			/>
		<path class="st1" d="M87.6,26.8c-0.1,0-0.1,0-0.2-0.1s0-0.3,0.1-0.4c0.9-1.8,2.3-3.8,3.2-3.8c0.2,0,0.4,0.2,0.5,0.4
			c0.4,0.8,2.4,1.4,4.8,1.4c1.6,0.1,3.1-0.3,4.5-1c0.1,0,0.1-0.1,0.2-0.1c0.7,0,1.9,1.4,2,2.4v0.2c0,0.1,0.1,0.1,0,0.2l-0.1,0.1
			h-0.1c-0.1,0-0.2-0.1-0.2-0.2l-0.1-0.1h-0.1v-0.1c-0.2-0.7-0.8-1.2-1.5-1.3c-0.3,0.8-2.5,1.2-4.5,1.2c-2.3,0-5.2-0.5-5.9-1.7
			c-0.1-0.2-0.2-0.3-0.3-0.3c-0.3,0-0.5,0.6-0.8,1.2s-0.6,1.1-1.1,1.6l-0.1,0.1C87.9,26.7,87.7,26.8,87.6,26.8z"/>
		<path class="st1" d="M102.4,25.7c-0.2-0.8-1-1.3-1.8-1.4c-0.1,1.5-8.9,1.7-10.2-0.5c-0.8-1.4-1.4,1.8-2.4,2.5
			c-0.3,0.2-0.5,0.4-0.4,0c1.1-2.3,2.9-4.4,3.4-3.5c0.9,1.7,7,2.1,9.5,0.5c0.4-0.3,1.8,1.2,2,2.3C102.6,26.3,102.6,25.9,102.4,25.7z
			"/>
		<path class="st1" d="M72.2,66.7c-0.2-4.7,1.7-8.9,3.4-13c0.2-0.4,0.3-0.7,0.4-1.1l0.1-0.1h0.1c0.3,0,0.4,0.3,0.5,0.4
			c0,0,0,0.1,0.1,0.1l0,0v0.2c-0.4,1-0.7,1.9-1.1,2.9c-1.1,2.4-1.9,5-2.4,7.6c0,0.1-0.1,0.3-0.1,0.4c-0.1,0.9-0.3,1.9-0.6,2.8
			l-0.4,0.6V66.7z"/>
		<path class="st1" d="M76.6,53.1c-1.3,3.4-2.9,6.8-3.5,10.4c-0.2,1.1-0.4,2.1-0.7,3.1c-0.2-5,2-9.5,3.9-14
			C76.5,52.7,76.5,52.9,76.6,53.1z"/>
		<path class="st1" d="M97.8,47.1c-3.7,0-7.4-1.1-10.4-3.2l0,0l-0.2-0.2l-0.1-0.1l0.1-0.1c0.2-0.3,0.4-0.5,0.6-0.5
			c0.3,0,0.5,0.2,0.7,0.4c3.1,2.4,6.9,2.7,10.5,2.8h0.3c0.7,0,1.4,0,2.1,0.3l0.7,0.2l-0.7,0.1C100.2,47,99,47.1,97.8,47.1z"/>
		<path class="st1" d="M87.3,43.6c0.4-0.5,0.7-0.4,1.2,0c3.2,2.4,6.8,2.8,10.6,2.8c0.8,0,1.6,0,2.3,0.3
			C96.5,47.6,91.4,46.5,87.3,43.6z"/>
		<path class="st1" d="M81,64.8c-2.5-3.1-3.9-5.8-2.6-9.5c0.2-0.7,0.4-1.4,0.5-2.1c0.1-0.7,0.3-1.4,0.5-2.1l0.4-1v1
			c0,1.7-0.2,3.4-0.6,5c-0.7,2.2-0.1,4.7,1.5,6.3c0.1,0.1,0.1,0.1,0.1,0.2c0.6,0.5,0.8,1.3,0.5,2V65L81,64.8z"/>
		<path class="st1" d="M81.1,64.7c-2.3-2.8-4-5.6-2.6-9.3c0.5-1.3,0.5-2.8,1.1-4.1c0,1.7-0.2,3.4-0.6,5c-0.8,2.4,0,4.6,1.5,6.5
			C81,63.3,81.3,64,81.1,64.7z"/>
		<path class="st1" d="M80.8,49c-0.2-0.2-0.2-0.5-0.1-0.8c1.2-2.2,2.1-4.5,2.7-6.9c0.4-1.4,0.9-3.1,1.4-4.5l0.4,0.1l-0.5,2.7
			c-0.6,3.2-1.3,6.6-3.6,9.4L81,49.1L80.8,49z"/>
		<path class="st1" d="M80.9,48.3c2.2-3.5,2.6-7.7,4.2-11.4c-1,4.1-1.3,8.5-4.1,12.1c-0.2-0.1-0.3-0.3-0.2-0.5
			C80.8,48.4,80.9,48.4,80.9,48.3z"/>
		<path class="st1" d="M112,62.5L112,62.5c-1.5-3.1-1.2-6.1-0.9-9c0.1-1.3,0.3-2.5,0.3-3.8h0.4c0.1,1.6,0.2,3.2,0.2,4.8
			c-0.2,2.4,0.1,4.9,0.7,7.2c0.1,0.2,0.3,0.5,0.1,0.7c-0.2,0.2-0.3,0.2-0.5,0.2L112,62.5z"/>
		<path class="st1" d="M112.1,62.3c-2.1-4.1-0.5-8.5-0.6-12.7c0.5,4-0.4,8.1,0.9,12C112.5,61.9,112.7,62.3,112.1,62.3z"/>
		<path class="st1" d="M104.4,51.1c-0.2,0-0.4-0.1-0.4-0.2s-0.1-0.3,0-0.5c0.7-1.7,0.9-3.5,0.8-5.3c-0.1-1.4,0.1-2.7,0.4-4.1
			c0-0.1,0-0.2,0.1-0.3c0-0.3,0.2-0.6,0.4-0.9l0.4-0.5l-0.1,0.5c-0.1,1.1,0,2.3,0,3.4c0.1,2.5,0.2,5.1-1.2,7.6l-0.1,0.1h-0.2
			C104.5,51,104.5,51.1,104.4,51.1L104.4,51.1z"/>
		<path class="st1" d="M104.1,50.6c1.4-3,0.3-6.3,1.1-9.4c0-0.4,0.2-0.8,0.4-1.1c-0.3,3.6,0.8,7.4-1.1,10.9
			C104.1,51,104.1,50.9,104.1,50.6z"/>
		<path class="st1" d="M72.4,47.3c-0.2-1,0.2-2,0.9-2.7c0.2-0.2,0.4-0.5,0.5-0.8c0.5-1.1,0.8-2.2,1-3.4c0.1-0.8,0.3-1.7,0.5-2.5
			l0.3-1.1v-0.1h0.1c0.5,0,0.6,0.5,0.7,0.6l0,0c0,0.2,0,0.3-0.1,0.5c0,0.9-0.2,1.8-0.5,2.6c-0.2,2.4-1.4,4.4-3,6.7l-0.5,0.6
			L72.4,47.3z"/>
		<path class="st1" d="M75.7,40.4c-0.2,2.5-1.5,4.6-3.1,6.9C72.2,45.6,73.5,45,74,44c0.5-1.1,0.8-2.3,1-3.5s0.5-2.4,0.8-3.6
			c0.4,0,0.4,0.3,0.5,0.5C76.1,38.4,76.1,39.4,75.7,40.4z"/>
		<path class="st1" d="M108.4,51.1L108.4,51.1c1.2-2.9,2.8-5.8,6-7.2l0.2,0.3c-2.4,1.8-3.8,4.4-5.3,7l-0.4,0.7L108.4,51.1z"/>
		<path class="st1" d="M108.9,51.4c-0.1-0.1-0.2-0.3-0.4-0.4c1.3-3,2.8-5.7,5.9-7C111.9,45.9,110.4,48.7,108.9,51.4z"/>
		<path class="st1" d="M75.5,37L75.5,37c0.8-2.8,2.4-5.4,4.6-7.3l0.1-0.1l0.1,0.1c0.3,0.1,0.3,0.4,0.4,0.5c0,0.1,0,0.2,0.1,0.3
			l0.1,0.1v0.1c-0.4,0.7-0.8,1.3-1.1,1.9l-0.2,0.2l-0.1-0.3v-0.4l0,0c-0.1,0-0.2,0.1-0.2,0.2c-0.1,0.1-0.1,0.1-0.1,0.2
			c-0.8,1.3-1.5,2.6-2.1,4c0,0.1-0.1,0.2-0.1,0.3c-0.1,0.4-0.2,0.9-0.8,0.9h-0.1L75.5,37z"/>
		<path class="st1" d="M76,37.3c-0.1-0.1-0.2-0.3-0.3-0.4c0.8-2.8,2.3-5.2,4.5-7.1c0.4,0.2,0.2,0.5,0.4,0.7
			c-0.2,0.7-0.6,1.3-1.1,1.8c-0.1-0.2,0-0.5-0.3-0.4c-0.3,0.1-0.3,0.3-0.5,0.4c-0.8,1.3-1.5,2.6-2.1,4C76.6,36.6,76.7,37.3,76,37.3z
			"/>
		<path class="st1" d="M102.1,61.7c-0.9-0.3-0.7-0.9-0.6-1.3c0-0.2,0.1-0.4,0.1-0.5c-0.1-0.7-0.1-1.5,0.1-2.3
			c0.4-2.3,1.1-4.4,2.1-6.5c0.1-0.3,0.2-0.5,0.4-0.7l0.1-0.3l0.5,0.7v0.1c-1.3,3.2-2.7,6.8-2.4,10.5v0.3H102.1z"/>
		<path class="st1" d="M104.1,50.6c0.1,0.2,0.2,0.3,0.4,0.5c-1.3,3.4-2.7,6.8-2.4,10.6c-1.1-0.4-0.4-1.2-0.5-1.7
			c-0.1-0.8-0.1-1.5,0.1-2.3C102.2,55.2,103,52.8,104.1,50.6z"/>
		<path class="st1" d="M75.4,40.6v-0.2c0.1-0.4,0.1-0.8,0.2-1.2c0.1-0.7,0.2-1.3,0.4-2c0.5-1.8,1.1-3.8,2.7-5.1l0.5-0.4l-0.3,0.6
			c-1.2,2.6-2.2,5.3-2.8,8.1v0.1h-0.5L75.4,40.6L75.4,40.6z"/>
		<path class="st1" d="M76.1,37.3c0.5-1.9,1.1-3.7,2.7-5c-1.3,2.6-2.2,5.4-2.8,8.2h-0.4C75.9,39.3,76,38.3,76.1,37.3z"/>
		<path class="st1" d="M101.3,66.5c0-0.9,0-1.7-0.1-2.6c-0.2-2.1-0.1-4.2,0.3-6.3l0.2-0.8l0.2,0.8c0.1,0.5,0.1,1.1,0.1,1.6
			c-0.1,0.8,0,1.5,0.3,2.3l0,0v0.8c0.1,1.5-0.1,3-0.6,4.3l-0.4,0.6V66.5z"/>
		<path class="st1" d="M101.8,57.7c0.3,1.3-0.4,2.7,0.4,3.9c0.2,1.7,0,3.4-0.5,5C101.5,63.5,101.2,60.6,101.8,57.7z"/>
		<path class="st1" d="M111.9,62.2L111.9,62.2c0.3-0.2,0.3-0.4,0.4-0.7l0.1-0.8l0.3,0.7c0.9,2.2,1.3,4.5,1.2,6.8l-0.1,1.1
			L111.9,62.2z"/>
		<path class="st1" d="M112.1,62.3c0.3-0.2,0.3-0.5,0.4-0.7c0.9,2.1,1.3,4.4,1.2,6.8C113.1,66.3,112.5,64.3,112.1,62.3z"/>
		<path class="st1" d="M145.4,24.7c-0.4,0-0.8-0.1-1.2-0.1c-0.4-0.1-0.8-0.1-1.2-0.1h-0.4l-0.6,0.1l0.4-0.4c0.6-0.4,1.2-0.6,1.9-0.5
			h1.4c0.5,0,1.1-0.1,1.5-0.4l0.8-0.5l-0.5,0.7C147.2,24.3,146.4,24.7,145.4,24.7L145.4,24.7z"/>
		<path class="st1" d="M76.1,52.7L76.1,52.7c0.1-0.8,0.6-1.6,1.3-2c1.1-0.7,2.2-1.5,3.2-2.4l0.4-0.5l0.1,1V49
			c-0.8,1-1.7,1.8-2.8,2.4c-0.7,0.3-1.3,0.9-1.6,1.7l-0.1,0.3L76.1,52.7z"/>
		<path class="st1" d="M80.9,48.3c0,0.2,0,0.4,0.1,0.6c-0.7,1-1.7,1.8-2.8,2.3c-0.7,0.4-1.3,1-1.6,1.8l-0.4-0.4
			c0.1-0.8,0.6-1.4,1.3-1.7C78.8,50.3,79.9,49.4,80.9,48.3z"/>
		<path class="st1" d="M75.4,74.4c-0.2,0-0.3,0-0.5-0.1l-0.4-0.1l0.3-0.2c0.4-0.4,0.7-0.6,0.6-0.9s-0.5-0.5-1-0.7
			c-1.1-0.4-1.7-1.4-1.6-2.5v-0.6l0.4,0.5c0.5,0.9,1.3,1.5,2.2,2c0.1,0.1,0.3,0.2,0.4,0.3c0.4,0.3,1.1,0.7,0.9,1.4
			C76.5,74.1,76,74.4,75.4,74.4z"/>
		<path class="st1" d="M75.1,74.2c1.3-1,0.6-1.4-0.4-1.9c-1-0.3-1.6-1.3-1.5-2.3c0.6,1,1.5,1.7,2.6,2.2c0.5,0.3,1,0.6,0.8,1.2
			C76.4,74,75.7,74.3,75.1,74.2L75.1,74.2z"/>
		<path class="st1" d="M80.5,30.7c-0.3-0.1-0.5-0.3-0.5-0.6v-0.3l0.1-0.1c1.2-1.2,2.7-2.1,4.3-2.5h0.1l0.1,0.1
			c0.3,0.5-0.1,0.7-0.4,0.8c0,0-0.1,0-0.1,0.1l0,0l0,0c-1.1,0.5-2.1,1.1-2.9,2C81,30.4,80.8,30.6,80.5,30.7L80.5,30.7z"/>
		<path class="st1" d="M80.6,30.5c-0.4-0.1-0.3-0.5-0.4-0.7c1.2-1.2,2.6-2,4.2-2.4c0.2,0.5-0.1,0.5-0.4,0.6
			C82.8,28.6,81.6,29.5,80.6,30.5z"/>
		<path class="st1" d="M69.5,65L69.5,65c0.3-0.2,0.3-0.4,0.3-0.6s0-0.3,0.1-0.5l0.2-0.5l0.2,0.4c0.3,1,0.4,2,0.4,3.1v1.5
			c0,0.1,0,0.2,0.1,0.3c0.1,0.2,0.2,0.4,0,0.6s-0.3,0.3-0.6,0.3H70L69.5,65z"/>
		<path class="st1" d="M69.7,65.1c0.4-0.3,0.2-0.7,0.4-1.1c0.6,1.5,0.3,3.1,0.4,4.6c0,0.4,0.5,0.9-0.4,1.1
			C69.9,68.1,69.8,66.6,69.7,65.1z"/>
		<path class="st1" d="M133.2,21.2c-0.6-0.1-1.1-0.5-1.4-1c-0.3-0.8-0.1-1.7,0.4-2.3l0.7-1.4l-0.4,1.5c-0.3,1.1,0.1,2.2,0.9,2.9
			l0.4,0.4L133.2,21.2z"/>
		<path class="st1" d="M132.3,18c-0.4,1.2,0.2,2.1,0.9,3.1C131.8,20.7,131.4,19.6,132.3,18z"/>
		<path class="st1" d="M70.4,72.9c-0.1-0.2-0.1-0.4-0.2-0.6c-0.3-0.8-0.5-1.7-0.4-2.6v-0.1h0.1c0.2-0.1,0.2-0.3,0.2-0.5
			c0-0.1,0-0.3,0.1-0.4l0.1-0.4l0.2,0.4c0.4,1.1,0.5,2.3,0.3,3.4c0,0.3-0.1,0.6-0.1,0.9l-0.1,1.1L70.4,72.9z"/>
		<path class="st1" d="M70,69.7c0.4-0.3,0.3-0.7,0.4-1.1c0.6,1.3,0.3,2.8,0.2,4.2C70.2,71.8,70,70.7,70,69.7z"/>
		<path class="st1" d="M86,25.8c-0.1,0-0.3-0.1-0.4-0.2l-0.1-0.1l0.1-0.1c0.5-1.3,1.3-2.6,2.3-3.6l0.1-0.1l0.4,0.5l-0.1,0.1
			l-2.1,3.2l0,0C86.2,25.8,86.1,25.8,86,25.8z"/>
		<path class="st1" d="M87.9,22.1c0.1,0.1,0.2,0.2,0.3,0.4c-0.7,1.1-1.3,2.2-2.1,3.2c-0.2,0.2-0.4,0.2-0.4,0
			C86.2,24.3,86.9,23.1,87.9,22.1z"/>
		<path class="st1" d="M135.4,26.6c-1.8-0.6-1.6-1.7-1.5-2.6c0-0.2,0.1-0.4,0.1-0.5v-1l0.3,1.1c0.3,1,0.7,2,1.3,2.9L136,27
			L135.4,26.6z"/>
		<path class="st1" d="M135.5,26.5c-2.1-0.7-1.4-2-1.3-3C134.3,24.6,134.7,25.6,135.5,26.5z"/>
		<path class="st1" d="M84.3,27.3l1.4-1.8h0.9l-0.2,0.3c-0.2,0.2-0.3,0.5-0.4,0.7c-0.4,0.7-0.7,1.6-1.9,1.7h-0.4L84.3,27.3z"/>
		<path class="st1" d="M85.8,25.6h0.5c-0.6,0.9-0.7,2.3-2.2,2.4c0.1-0.2,0.3-0.5,0.4-0.6C84.9,26.7,85.3,26.2,85.8,25.6z"/>
		<path class="st1" d="M117.8,70.7c-1.3-0.4-1.6-1.5-1.8-2.6c0-0.1,0-0.1,0.2-0.3l0.2-0.1l1.9,3.2L117.8,70.7z"/>
		<path class="st1" d="M116.3,67.9c0.5,0.9,1.1,1.7,1.6,2.6C116.9,70.1,116.2,69.1,116.3,67.9L116.3,67.9z"/>
		<path class="st1" d="M103.9,23.6c-0.6-0.3-1.1-0.8-1.4-1.4l-0.1-0.1l0.5-0.5l1.6,1.6L103.9,23.6L103.9,23.6z"/>
		<path class="st1" d="M102.5,22.1l0.4-0.4l1.4,1.4l-0.4,0.4C103.3,23.2,102.8,22.7,102.5,22.1z"/>
	</g>
</g>
<rect x="30.6" y="83.3" class="st2" width="138.9" height="0.9"/>
</svg>
